<svg width="75" height="46" viewBox="0 0 75 46" fill="none" xmlns="http://www.w3.org/2000/svg">
<path d="M29.976 27.696H36.696L35.288 34.288H28.632L26.328 46H19.288L21.656 34.288H13.976L11.608 46H4.568L6.936 34.288H0.344L1.752 27.696H8.28L9.944 19.568H3.224L4.632 12.912H11.288L13.656 1.2H20.696L18.328 12.912H26.008L28.376 1.2H35.352L32.984 12.912H39.576L38.168 19.568H31.64L29.976 27.696ZM16.92 19.568L15.32 27.696H23L24.664 19.568H16.92ZM73.9585 46H40.4225V44.464C40.4225 40.9653 40.9772 38 42.0865 35.568C43.2385 33.136 44.6892 31.1307 46.4385 29.552C48.2305 27.9733 50.4705 26.3733 53.1585 24.752L57.7025 21.936C59.5798 20.784 61.0305 19.6107 62.0545 18.416C63.0785 17.2213 63.5905 15.8347 63.5905 14.256C63.5905 12.336 63.0998 10.8853 62.1185 9.904C61.1372 8.88 59.6865 8.368 57.7665 8.368C55.7612 8.368 54.1612 9.05067 52.9665 10.416C51.7718 11.7387 51.0892 13.7227 50.9185 16.368L40.6785 16.048C40.8492 12.6773 41.7025 9.81866 43.2385 7.472C44.8172 5.08266 46.8438 3.312 49.3185 2.16C51.8358 0.965329 54.6518 0.367996 57.7665 0.367996C62.5878 0.367996 66.4918 1.49866 69.4785 3.76C72.5078 6.02133 74.0225 9.30666 74.0225 13.616C74.0225 16.5173 73.5105 18.928 72.4865 20.848C71.4625 22.7253 70.2252 24.1973 68.7745 25.264C67.3665 26.3307 65.2972 27.6747 62.5665 29.296L58.7905 31.664C56.9985 32.7733 55.5478 33.8613 54.4385 34.928C53.3718 35.9947 52.7958 36.848 52.7105 37.488H73.9585V46Z" fill="url(#paint0_linear_108_462)"/>
<defs>
<linearGradient id="paint0_linear_108_462" x1="-1" y1="-15" x2="67.1311" y2="65.3664" gradientUnits="userSpaceOnUse">
<stop stop-color="#6FE9D3"/>
<stop offset="1" stop-color="#776DE8"/>
</linearGradient>
</defs>
</svg>
