<svg width="20" height="20" viewBox="0 0 20 20" fill="none" xmlns="http://www.w3.org/2000/svg">
<path d="M10.0002 3.33337C15.0627 3.33337 19.1668 5.57171 19.1668 8.33337V11.6667C19.1668 14.4284 15.0627 16.6667 10.0002 16.6667C5.02766 16.6667 0.980163 14.5075 0.837663 11.8142L0.833496 11.6667V8.33337C0.833496 5.57171 4.93766 3.33337 10.0002 3.33337ZM10.0002 13.3334C6.90016 13.3334 4.1585 12.4942 2.50016 11.2084V11.6667C2.50016 13.235 5.736 15 10.0002 15C14.1752 15 17.3652 13.3084 17.496 11.765L17.5002 11.6667L17.501 11.2084C15.8427 12.4934 13.101 13.3334 10.0002 13.3334ZM10.0002 5.00004C5.736 5.00004 2.50016 6.76504 2.50016 8.33337C2.50016 9.90171 5.736 11.6667 10.0002 11.6667C14.2643 11.6667 17.5002 9.90171 17.5002 8.33337C17.5002 6.76504 14.2643 5.00004 10.0002 5.00004Z" fill="white"/>
</svg>
