<svg width="60" height="45" viewBox="0 0 60 45" fill="none" xmlns="http://www.w3.org/2000/svg">
<path d="M29.976 26.696H36.696L35.288 33.288H28.632L26.328 45H19.288L21.656 33.288H13.976L11.608 45H4.568L6.936 33.288H0.344L1.752 26.696H8.28L9.944 18.568H3.224L4.632 11.912H11.288L13.656 0.199997H20.696L18.328 11.912H26.008L28.376 0.199997H35.352L32.984 11.912H39.576L38.168 18.568H31.64L29.976 26.696ZM16.92 18.568L15.32 26.696H23L24.664 18.568H16.92ZM59.9425 45H49.6385V14.664H40.6145V7.688H41.9585C44.6465 7.688 46.7585 6.984 48.2945 5.576C49.8732 4.12533 50.8972 2.33333 51.3665 0.199997H59.9425V45Z" fill="url(#paint0_linear_108_423)"/>
<defs>
<linearGradient id="paint0_linear_108_423" x1="-1" y1="-16" x2="68.0624" y2="52.9318" gradientUnits="userSpaceOnUse">
<stop stop-color="#6FE9D3"/>
<stop offset="1" stop-color="#776DE8"/>
</linearGradient>
</defs>
</svg>
