<svg width="76" height="47" viewBox="0 0 76 47" fill="none" xmlns="http://www.w3.org/2000/svg">
<path d="M29.976 27.696H36.696L35.288 34.288H28.632L26.328 46H19.288L21.656 34.288H13.976L11.608 46H4.568L6.936 34.288H0.344L1.752 27.696H8.28L9.944 19.568H3.224L4.632 12.912H11.288L13.656 1.2H20.696L18.328 12.912H26.008L28.376 1.2H35.352L32.984 12.912H39.576L38.168 19.568H31.64L29.976 27.696ZM16.92 19.568L15.32 27.696H23L24.664 19.568H16.92ZM57.5105 19.504C59.5158 19.504 61.1158 18.992 62.3105 17.968C63.5478 16.9013 64.1665 15.4933 64.1665 13.744C64.1665 12.0373 63.5905 10.6933 62.4385 9.712C61.3292 8.688 59.8998 8.176 58.1505 8.176C56.3585 8.176 54.8652 8.70933 53.6705 9.776C52.5185 10.8 51.8358 12.336 51.6225 14.384L41.5105 13.808C41.8092 9.456 43.4305 6.128 46.3745 3.824C49.3185 1.47733 53.2438 0.303997 58.1505 0.303997C63.0572 0.303997 66.9825 1.456 69.9265 3.76C72.9132 6.02133 74.4065 9.17866 74.4065 13.232C74.4065 15.4507 73.7665 17.3493 72.4865 18.928C71.2492 20.5067 69.6065 21.6587 67.5585 22.384V22.64C69.9052 23.3227 71.7825 24.5173 73.1905 26.224C74.6412 27.9307 75.3665 30.1493 75.3665 32.88C75.3665 37.7013 73.8092 41.2427 70.6945 43.504C67.5798 45.7227 63.3772 46.832 58.0865 46.832C52.8812 46.832 48.6785 45.6587 45.4785 43.312C42.3212 40.9227 40.5505 37.296 40.1665 32.432L50.5985 31.792C51.0678 36.6133 53.5638 39.024 58.0865 39.024C60.0918 39.024 61.7132 38.4693 62.9505 37.36C64.2305 36.2507 64.8705 34.7147 64.8705 32.752C64.8705 30.704 64.2305 29.168 62.9505 28.144C61.6705 27.12 59.8572 26.608 57.5105 26.608H53.4145V19.44L57.5105 19.504Z" fill="url(#paint0_linear_108_466)"/>
<defs>
<linearGradient id="paint0_linear_108_466" x1="-1" y1="-15" x2="66.9839" y2="66.2208" gradientUnits="userSpaceOnUse">
<stop stop-color="#6FE9D3"/>
<stop offset="1" stop-color="#776DE8"/>
</linearGradient>
</defs>
</svg>
